<?xml version="1.0" standalone="no"?>
<svg viewBox="0 0 200 200" xmlns="http://www.w3.org/2000/svg">
 
  <path fill="#4a88e0" d="M43.1,-67C56,-58.7,66.7,-47.1,74.6,-33.1C82.4,-19.2,87.4,-2.9,86.1,13C84.8,28.9,77.2,44.6,65.9,56.4C54.6,68.3,39.7,76.3,24.3,79.3C8.8,82.3,-7.1,80.3,-22.4,75.9C-37.7,71.6,-52.3,64.8,-60.9,53.5C-69.5,42.3,-71.9,26.5,-75.4,10.1C-78.9,-6.2,-83.3,-23.2,-79.9,-38.9C-76.5,-54.7,-65.2,-69.2,-50.5,-76.7C-35.9,-84.3,-17.9,-84.8,-1.4,-82.5C15.1,-80.3,30.2,-75.3,43.1,-67Z" transform="translate(100 100)" />
</svg>
